HIERARCHY
ROOT Hips
{
	OFFSET 0.000000 100.481300 0.000000
	CHANNELS 6 Xposition Yposition Zposition Xrotation Yrotation Zrotation
	JOINT Spine
	{
		OFFSET -0.279200 12.230698 -2.892100
		CHANNELS 3 Xrotation Yrotation Zrotation
		JOINT Spine1
		{
			OFFSET -0.325700 14.269203 -3.374200
			CHANNELS 3 Xrotation Yrotation Zrotation
			JOINT Spine2
			{
				OFFSET -0.372300 16.307602 -0.352600
				CHANNELS 3 Xrotation Yrotation Zrotation
				JOINT Neck
				{
					OFFSET -0.418800 17.814194 8.416900
					CHANNELS 3 Xrotation Yrotation Zrotation
					JOINT Head
					{
						OFFSET 0.000000 7.031097 3.806800
						CHANNELS 3 Xrotation Yrotation Zrotation
						JOINT HeadTop_End
						{
							OFFSET 0.000000 24.646606 12.978600
							CHANNELS 3 Xrotation Yrotation Zrotation
							End Site
							{
								OFFSET 0.000000 27.854965 0.000000
							}
						}
					}
				}
				JOINT LeftShoulder
				{
					OFFSET 16.952999 14.495407 -7.737500
					CHANNELS 3 Xrotation Yrotation Zrotation
					JOINT LeftArm
					{
						OFFSET 9.308998 -2.777710 0.208600
						CHANNELS 3 Xrotation Yrotation Zrotation
						JOINT LeftForeArm
						{
							OFFSET 29.972298 0.000000 0.000000
							CHANNELS 3 Xrotation Yrotation Zrotation
							JOINT LeftHand
							{
								OFFSET 26.026505 0.000000 0.000000
								CHANNELS 3 Xrotation Yrotation Zrotation
								JOINT LeftHandThumb1
								{
									OFFSET 12.240501 -7.147949 9.207150
									CHANNELS 3 Xrotation Yrotation Zrotation
									JOINT LeftHandThumb2
									{
										OFFSET 4.138618 -2.389435 2.389433
										CHANNELS 3 Xrotation Yrotation Zrotation
										JOINT LeftHandThumb3
										{
											OFFSET 2.726913 -1.574387 1.574386
											CHANNELS 3 Xrotation Yrotation Zrotation
											JOINT LeftHandThumb4
											{
												OFFSET 3.941010 -2.275345 2.275342
												CHANNELS 3 Xrotation Yrotation Zrotation
												End Site
												{
													OFFSET -0.005798 5.087799 0.009903
												}
											}
										}
									}
								}
								JOINT LeftHandIndex1
								{
									OFFSET 24.424698 -1.985611 5.953459
									CHANNELS 3 Xrotation Yrotation Zrotation
									JOINT LeftHandIndex2
									{
										OFFSET 6.426697 0.000000 0.000000
										CHANNELS 3 Xrotation Yrotation Zrotation
										JOINT LeftHandIndex3
										{
											OFFSET 5.337898 0.000000 0.000000
											CHANNELS 3 Xrotation Yrotation Zrotation
											JOINT LeftHandIndex4
											{
												OFFSET 4.409401 0.000000 0.000000
												CHANNELS 3 Xrotation Yrotation Zrotation
												End Site
												{
													OFFSET 0.000000 4.409363 0.014373
												}
											}
										}
									}
								}
								JOINT LeftHandMiddle1
								{
									OFFSET 23.810104 0.000000 0.000000
									CHANNELS 3 Xrotation Yrotation Zrotation
									JOINT LeftHandMiddle2
									{
										OFFSET 7.176498 0.000000 0.000000
										CHANNELS 3 Xrotation Yrotation Zrotation
										JOINT LeftHandMiddle3
										{
											OFFSET 6.774902 0.000000 0.000000
											CHANNELS 3 Xrotation Yrotation Zrotation
											JOINT LeftHandMiddle4
											{
												OFFSET 5.403328 0.000000 0.000000
												CHANNELS 3 Xrotation Yrotation Zrotation
												End Site
												{
													OFFSET -0.027702 5.403244 0.017414
												}
											}
										}
									}
								}
								JOINT LeftHandRing1
								{
									OFFSET 22.908401 -0.839279 -6.020567
									CHANNELS 3 Xrotation Yrotation Zrotation
									JOINT LeftHandRing2
									{
										OFFSET 6.337502 0.000000 0.000000
										CHANNELS 3 Xrotation Yrotation Zrotation
										JOINT LeftHandRing3
										{
											OFFSET 5.779297 0.000000 0.000000
											CHANNELS 3 Xrotation Yrotation Zrotation
											JOINT LeftHandRing4
											{
												OFFSET 4.965698 0.000000 0.000000
												CHANNELS 3 Xrotation Yrotation Zrotation
												End Site
												{
													OFFSET 0.000000 4.965668 0.016186
												}
											}
										}
									}
								}
								JOINT LeftHandPinky1
								{
									OFFSET 20.037003 -1.530319 -10.950146
									CHANNELS 3 Xrotation Yrotation Zrotation
									JOINT LeftHandPinky2
									{
										OFFSET 5.254700 0.000000 0.000000
										CHANNELS 3 Xrotation Yrotation Zrotation
										JOINT LeftHandPinky3
										{
											OFFSET 4.810204 0.000000 0.000000
											CHANNELS 3 Xrotation Yrotation Zrotation
											JOINT LeftHandPinky4
											{
												OFFSET 3.647202 0.000000 0.000000
												CHANNELS 3 Xrotation Yrotation Zrotation
												End Site
												{
													OFFSET 0.000000 3.647186 0.011889
												}
											}
										}
									}
								}
							}
						}
					}
				}
				JOINT RightShoulder
				{
					OFFSET -15.141001 14.495407 -7.737500
					CHANNELS 3 Xrotation Yrotation Zrotation
					JOINT RightArm
					{
						OFFSET -9.308998 -2.777710 0.208500
						CHANNELS 3 Xrotation Yrotation Zrotation
						JOINT RightForeArm
						{
							OFFSET -29.972300 0.000000 0.000000
							CHANNELS 3 Xrotation Yrotation Zrotation
							JOINT RightHand
							{
								OFFSET -26.026505 0.000000 0.000000
								CHANNELS 3 Xrotation Yrotation Zrotation
								JOINT RightHandThumb1
								{
									OFFSET -12.240601 -7.148026 9.207092
									CHANNELS 3 Xrotation Yrotation Zrotation
									JOINT RightHandThumb2
									{
										OFFSET -4.138618 -2.389435 2.389433
										CHANNELS 3 Xrotation Yrotation Zrotation
										JOINT RightHandThumb3
										{
											OFFSET -2.726974 -1.574417 1.574421
											CHANNELS 3 Xrotation Yrotation Zrotation
											JOINT RightHandThumb4
											{
												OFFSET -3.941010 -2.275345 2.275343
												CHANNELS 3 Xrotation Yrotation Zrotation
												End Site
												{
													OFFSET 0.005814 5.087799 0.009927
												}
											}
										}
									}
								}
								JOINT RightHandIndex1
								{
									OFFSET -24.424698 -1.985657 5.953444
									CHANNELS 3 Xrotation Yrotation Zrotation
									JOINT RightHandIndex2
									{
										OFFSET -6.426697 0.000000 0.000000
										CHANNELS 3 Xrotation Yrotation Zrotation
										JOINT RightHandIndex3
										{
											OFFSET -5.337898 0.000000 0.000000
											CHANNELS 3 Xrotation Yrotation Zrotation
											JOINT RightHandIndex4
											{
												OFFSET -4.409401 0.000000 0.000000
												CHANNELS 3 Xrotation Yrotation Zrotation
												End Site
												{
													OFFSET 0.000000 4.409363 0.014408
												}
											}
										}
									}
								}
								JOINT RightHandMiddle1
								{
									OFFSET -23.810097 0.000000 0.000000
									CHANNELS 3 Xrotation Yrotation Zrotation
									JOINT RightHandMiddle2
									{
										OFFSET -7.176498 0.000000 0.000000
										CHANNELS 3 Xrotation Yrotation Zrotation
										JOINT RightHandMiddle3
										{
											OFFSET -6.774902 0.000000 0.000000
											CHANNELS 3 Xrotation Yrotation Zrotation
											JOINT RightHandMiddle4
											{
												OFFSET -5.403328 0.000000 0.000000
												CHANNELS 3 Xrotation Yrotation Zrotation
												End Site
												{
													OFFSET 0.027702 5.403244 0.017457
												}
											}
										}
									}
								}
								JOINT RightHandRing1
								{
									OFFSET -22.908302 -0.839325 -6.020576
									CHANNELS 3 Xrotation Yrotation Zrotation
									JOINT RightHandRing2
									{
										OFFSET -6.337502 0.000000 0.000000
										CHANNELS 3 Xrotation Yrotation Zrotation
										JOINT RightHandRing3
										{
											OFFSET -5.779297 0.000000 0.000000
											CHANNELS 3 Xrotation Yrotation Zrotation
											JOINT RightHandRing4
											{
												OFFSET -4.965698 0.000000 0.000000
												CHANNELS 3 Xrotation Yrotation Zrotation
												End Site
												{
													OFFSET 0.000000 4.965668 0.016226
												}
											}
										}
									}
								}
								JOINT RightHandPinky1
								{
									OFFSET -20.037003 -1.530334 -10.950259
									CHANNELS 3 Xrotation Yrotation Zrotation
									JOINT RightHandPinky2
									{
										OFFSET -5.254700 0.000000 0.000000
										CHANNELS 3 Xrotation Yrotation Zrotation
										JOINT RightHandPinky3
										{
											OFFSET -4.810204 0.000000 0.000000
											CHANNELS 3 Xrotation Yrotation Zrotation
											JOINT RightHandPinky4
											{
												OFFSET -3.647202 0.000000 0.000000
												CHANNELS 3 Xrotation Yrotation Zrotation
												End Site
												{
													OFFSET 0.000000 3.647186 0.011917
												}
											}
										}
									}
								}
							}
						}
					}
				}
			}
		}
	}
	JOINT LeftUpLeg
	{
		OFFSET 15.427100 -6.655098 0.678600
		CHANNELS 3 Xrotation Yrotation Zrotation
		JOINT LeftLeg
		{
			OFFSET 4.081073 -39.591068 13.024000
			CHANNELS 3 Xrotation Yrotation Zrotation
			JOINT LeftFoot
			{
				OFFSET -4.081074 -37.707932 -15.979700
				CHANNELS 3 Xrotation Yrotation Zrotation
				JOINT LeftToeBase
				{
					OFFSET 5.346399 -15.068900 20.645000
					CHANNELS 3 Xrotation Yrotation Zrotation
					JOINT LeftToe_End
					{
						OFFSET 2.754700 0.931300 11.300900
						CHANNELS 3 Xrotation Yrotation Zrotation
						End Site
						{
							OFFSET 0.000000 11.669021 0.000000
						}
					}
				}
			}
		}
	}
	JOINT RightUpLeg
	{
		OFFSET -15.569500 -6.655098 0.678600
		CHANNELS 3 Xrotation Yrotation Zrotation
		JOINT RightLeg
		{
			OFFSET -4.081825 -39.591045 13.023800
			CHANNELS 3 Xrotation Yrotation Zrotation
			JOINT RightFoot
			{
				OFFSET 4.081824 -37.707954 -15.979600
				CHANNELS 3 Xrotation Yrotation Zrotation
				JOINT RightToeBase
				{
					OFFSET -5.346400 -15.068900 20.645000
					CHANNELS 3 Xrotation Yrotation Zrotation
					JOINT RightToe_End
					{
						OFFSET -2.754700 0.931300 11.300900
						CHANNELS 3 Xrotation Yrotation Zrotation
						End Site
						{
							OFFSET 0.000000 11.669021 0.000000
						}
					}
				}
			}
		}
	}
}
MOTION
Frames: 4
Frame Time: 0.033333
-4.700902 41.974281 -10.058165 193.293261 -178.502500 185.726586 19.528064 5.956421 -4.724534 24.766747 -2.224122 -1.567553 24.789195 -2.223850 -1.567146 -16.850234 0.840094 0.734679 29.555352 0.947520 -2.292259 -0.000000 0.000000 -0.000001 -15.975092 -28.635049 -0.435113 -26.328708 -22.352952 -34.456443 44.010495 -10.507714 7.978064 -25.932784 3.600103 15.823434 -6.098314 -4.968787 7.676392 -2.422391 8.439107 -6.764333 -3.010055 -10.560183 -3.694665 -0.000002 -0.000001 -0.000002 9.072840 -15.667733 -0.050199 0.010877 0.234098 -0.979464 0.004655 0.155927 -0.100846 0.000001 0.000000 -0.000001 8.577462 -0.781449 -5.413248 0.002555 0.541264 -3.655688 0.003787 0.022735 -3.502509 -0.000000 0.000001 0.000001 11.893158 19.775682 -6.252088 -0.146185 0.183661 -3.528081 -0.011296 0.638394 -1.780513 0.000001 -0.000001 0.000001 16.067658 25.900965 -21.645148 -0.091620 0.140948 -5.278684 -0.062329 0.123285 -5.101885 -0.000001 -0.000003 -0.000001 -43.816422 18.427304 19.163458 -42.287395 8.847018 40.384136 12.214320 7.677813 11.298908 34.583594 -6.016898 -12.858877 -13.422984 22.214844 -9.657690 1.382361 -17.414915 3.019646 -0.326730 2.787088 -0.596994 0.000000 0.000000 -0.000006 8.965039 10.962711 1.144257 0.109684 -0.225782 0.014835 0.181558 -0.155643 -3.586882 0.000001 -0.000000 0.000001 8.801815 -2.869164 0.526870 -0.049187 -0.539738 0.000015 -0.095882 0.039019 -4.162810 -0.000000 -0.000002 -0.000004 12.305209 -21.367205 8.346813 -0.122033 -0.148184 1.930687 0.006378 -0.641483 1.562727 -0.000000 0.000001 0.000002 10.731934 -26.468796 9.707736 -0.051207 -0.122149 3.709892 -0.026519 -0.092628 4.339971 0.000001 -0.000001 -0.000003 -113.546765 -9.272360 4.953093 75.645458 -9.633740 -8.248539 22.510249 -3.074174 -8.391836 -0.733733 0.742295 -2.922404 -0.000000 -0.000000 -0.000000 13.709088 -0.978802 -14.853061 93.989803 6.343235 -2.081735 -72.942985 4.046492 3.180096 -55.365981 13.652323 -6.092788 -0.000001 -0.000000 -0.000000 
-4.565392 43.937767 -10.113228 193.513425 -178.573356 185.494960 19.021858 5.380723 -4.556380 23.809145 -1.978877 -2.013054 23.831650 -1.978610 -2.012637 -16.696278 0.891525 0.831302 28.838749 1.044666 -2.300478 0.000000 -0.000000 -0.000001 -15.639105 -28.771663 -0.185783 -27.838533 -23.269903 -34.827128 41.752605 -10.459769 7.702803 -25.258774 2.859944 15.945143 -3.889823 -3.323835 4.647854 -2.045519 9.268588 -6.392384 -2.683146 -9.713527 -3.199881 -0.000002 0.000001 -0.000000 8.874265 -16.740459 -3.719274 0.016962 0.237722 -2.952844 0.010531 0.158149 -2.782712 0.000001 0.000000 -0.000002 8.569217 -0.569665 -7.221632 0.015623 0.550146 -5.086567 0.014798 0.030437 -4.853622 -0.000003 -0.000001 0.000001 11.758925 19.353018 -6.310641 -0.161605 0.167441 -1.157397 -0.028879 0.623402 0.637360 0.000001 -0.000000 -0.000001 15.221285 26.068600 -18.720702 -0.088744 0.131256 -4.268707 -0.065516 0.114295 -4.310263 0.000001 0.000001 -0.000003 -42.849123 19.802569 19.581440 -41.571789 10.520012 39.649614 11.942726 7.289249 11.521465 31.373115 -5.607003 -13.420288 -13.185014 21.812122 -9.257171 1.382381 -17.415048 3.019594 0.011594 1.637802 -1.188721 -0.000001 -0.000000 -0.000002 8.881805 11.559168 1.628532 0.107649 -0.226127 0.341562 0.181727 -0.158915 -3.123468 0.000001 -0.000000 -0.000001 8.770656 -2.582773 0.772403 -0.047613 -0.539828 0.122394 -0.094842 0.039288 -3.879357 -0.000000 -0.000002 -0.000001 12.310899 -21.664476 8.243590 -0.119394 -0.145801 1.968163 0.011337 -0.641274 1.629854 -0.000001 0.000000 -0.000000 10.486341 -26.408677 9.059631 -0.050967 -0.122161 3.445683 -0.025696 -0.091963 4.206648 -0.000004 -0.000002 -0.000001 -111.147095 -8.771370 3.972207 74.500002 -8.524139 -7.310841 21.179828 -3.132458 -7.740186 -0.804393 0.653627 -3.601754 0.000000 0.000001 -0.000000 10.921402 0.197008 -14.044212 92.856654 5.469819 -2.125534 -69.829484 3.184338 3.912791 -54.841296 14.016627 -6.085768 -0.000000 0.000001 -0.000000 
-4.409630 46.306389 -10.190170 193.867215 -178.553426 185.131854 18.332648 4.842195 -4.357925 22.478371 -1.591906 -2.447710 22.500894 -1.591650 -2.447291 -16.213515 0.959802 0.904999 27.682507 1.165579 -2.001465 -0.000000 0.000000 -0.000000 -15.261839 -28.885792 0.023413 -29.629466 -24.617843 -35.723102 40.016671 -9.963704 7.242663 -24.437158 2.014746 16.436285 -1.198098 -1.385881 0.997335 -1.651204 10.153295 -6.001471 -2.345641 -8.810387 -2.680360 -0.000000 -0.000001 0.000000 8.535705 -17.579169 -7.959674 0.020401 0.240632 -5.769040 0.019818 0.160926 -5.712626 0.000001 0.000000 0.000001 8.476259 -1.632662 -9.173289 0.027924 0.555242 -6.482662 0.025470 0.034823 -6.185619 0.000000 0.000000 0.000000 11.206597 17.408742 -5.992938 -0.166253 0.159878 -0.146694 -0.036752 0.617489 1.670871 0.000004 0.000000 0.000001 14.479060 26.349260 -16.915756 -0.089038 0.115956 -2.364355 -0.076921 0.103163 -2.533310 -0.000002 0.000002 -0.000000 -41.577533 21.064725 19.895100 -40.915453 12.318948 39.071353 12.758374 7.102954 11.664943 27.882497 -5.525462 -14.038410 -12.971267 21.499388 -8.791906 1.382319 -17.414952 3.019626 0.364432 0.390056 -1.821356 -0.000001 0.000001 0.000002 8.832661 11.655468 2.850578 0.101039 -0.227081 1.215564 0.178952 -0.162645 -2.135058 -0.000001 -0.000001 -0.000002 8.743897 -2.363013 1.798712 -0.040782 -0.541144 0.735718 -0.087607 0.036366 -3.028105 0.000001 -0.000001 -0.000001 12.262957 -21.330443 8.935185 -0.114164 -0.145704 2.602634 0.023182 -0.643079 2.243479 -0.000000 -0.000002 -0.000000 10.516671 -26.388364 9.372968 -0.047053 -0.123619 3.808148 -0.021859 -0.092874 4.560034 0.000003 0.000000 0.000001 -108.311917 -8.295171 3.044705 72.888091 -7.386559 -6.177530 19.721384 -3.235844 -7.269632 -0.838471 0.608748 -3.943512 -0.000000 -0.000000 -0.000000 7.770030 1.558368 -13.088306 91.143841 4.345701 -2.143605 -66.405859 2.365866 4.953626 -53.967220 14.505191 -6.105656 0.000000 0.000001 0.000000 
-4.225494 49.093445 -10.234938 194.030457 -178.799804 184.627936 17.582514 4.325879 -4.076677 21.023647 -1.242153 -2.712199 21.046133 -1.241903 -2.711779 -15.773246 0.960268 0.928055 26.434442 1.205287 -1.582771 0.000000 0.000000 -0.000001 -14.866819 -28.640296 -0.013649 -32.088714 -26.121543 -37.177614 40.397168 -9.022104 6.781327 -23.583253 1.993761 16.636995 0.621928 -0.079278 -1.510306 -1.261161 11.043202 -5.614578 -2.016532 -7.901759 -2.166113 -0.000002 0.000003 0.000001 8.238058 -18.078481 -11.169077 0.021858 0.243238 -8.086038 0.027513 0.163538 -7.912953 -0.000001 -0.000000 0.000000 8.297643 -3.092347 -10.694679 0.036521 0.556669 -7.544045 0.033105 0.036058 -7.199975 -0.000001 -0.000000 -0.000000 10.668853 14.878544 -6.086470 -0.165246 0.158398 -0.087223 -0.037655 0.618262 1.728358 0.000001 0.000002 -0.000000 13.919229 26.290867 -15.975049 -0.088742 0.106127 -1.097116 -0.084713 0.096888 -1.276492 0.000002 0.000002 0.000000 -40.045351 22.340043 19.976239 -39.740226 14.349589 38.459579 13.153422 6.847195 11.900023 24.291546 -5.163580 -14.334098 -12.905333 21.475291 -8.494938 1.382300 -17.414897 3.019626 0.714806 -0.905001 -2.467763 0.000000 0.000000 -0.000004 8.844366 11.338319 4.671160 0.090909 -0.227404 2.540268 0.173824 -0.165150 -0.714333 -0.000000 -0.000000 -0.000001 8.749146 -2.275351 3.540853 -0.028732 -0.543127 1.911500 -0.074714 0.029180 -1.652354 0.000000 0.000000 0.000000 12.223928 -20.536668 10.498955 -0.106786 -0.151492 3.885433 0.039353 -0.648035 3.459592 0.000001 -0.000000 -0.000000 10.802781 -26.400044 10.835869 -0.038796 -0.126464 4.936521 -0.014062 -0.096168 5.539357 0.000001 -0.000002 -0.000002 -104.776891 -7.736825 1.847202 70.628466 -6.263912 -4.861946 18.368803 -3.394645 -7.026417 -0.837901 0.605598 -3.962867 0.000000 -0.000000 -0.000000 4.858685 2.434230 -11.688727 88.626028 3.252456 -2.324744 -62.544507 1.469077 5.783413 -52.836103 14.966813 -6.121457 -0.000000 0.000001 -0.000000 
